<?xml version="1.0" encoding="utf-8"?>
<!-- Generator: Adobe Illustrator 24.0.1, SVG Export Plug-In . SVG Version: 6.00 Build 0)  -->
<svg version="1.1" id="kp2r-network-logo" xmlns="http://www.w3.org/2000/svg" xmlns:xlink="http://www.w3.org/1999/xlink" x="0px"
	 y="0px" width="3880px" height="645px" viewBox="0 0 3880 645" style="enable-background:new 0 0 3880 645;" xml:space="preserve">
<style type="text/css">
	.st0{fill:url(#bg_1_);}
	.st1{fill:#FFFFFF;}
	.st2{fill:#232733;}
</style>
<linearGradient id="bg_1_" gradientUnits="userSpaceOnUse" x1="174.3648" y1="2350.1353" x2="494.4182" y2="1795.7865" gradientTransform="matrix(1 0 0 1 0 -1752.9609)">
	<stop  offset="0" style="stop-color:#CE2B6C"/>
	<stop  offset="1" style="stop-color:#FF2D82"/>
</linearGradient>
<circle id="bg" class="st0" cx="334.4" cy="320" r="320"/>
<g id="kp2r">
	<path class="st1" d="M236.7,519.6c-0.7-0.2-4.6-0.8-8.4-1.4c-18.1-3-29.5-14.5-33.1-33.3c-1.7-8.8-2-150.8-0.3-161.5
		c2-12.3,9.2-23.1,20.4-30.2c6.6-4.2,11.8-10.5,13.4-16.2c1-3.6,1.5-12.7,1.9-34.2c0.5-29.2,0.7-32.8,2.5-43.3
		c2.2-12.5,11-32.2,18.4-41.4c15.2-18.8,37.9-32,63.3-36.7c19.6-3.7,48.3,0.1,66.8,8.7c28.1,13.1,47.6,37.8,54.8,69.3
		c1.1,5.1,1.6,13.6,1.9,38.6c0.4,33.5,1.1,40.4,4.5,45.1c2.4,3.4,7.2,7.7,11.4,10.3c10.2,6.3,17.9,18.1,19.7,30.2
		c0.7,4.2,1,32.1,1,79.9c0,80.5-0.1,82.4-5.5,93.5c-3.5,7.5-10.1,14.1-17.4,17.5c-11.4,5.3-12.9,5.4-118.1,5.3
		C281.3,519.9,237.5,519.7,236.7,519.6z M424,478c4.7-2.8,7.5-5.9,9.9-11c1.4-2.9,1.6-9.5,1.9-61c0.2-36.9-0.1-59.2-0.7-62.1
		c-1.9-8.9-7.4-14.6-17-17.1c-6.5-1.8-159.6-2-167.4-0.2s-12.6,5.5-16,12.8c-2,4.1-2,5-2,64.2v60l2.8,5c3.4,6.1,8.8,10.1,15,11.3
		c2.5,0.4,41.6,0.7,86.9,0.7l82.4-0.2L424,478z M386.5,284.8c8-4.2,9.4-7.3,10.5-23c1.4-18.9,0.5-39.2-2.3-49.9s-4.8-15-11.4-23.7
		c-14.1-18.9-35.5-28.6-56.5-25.7c-18.6,2.7-38.9,17.9-47.9,36c-5.6,11.2-6.3,16.6-6.3,46.5c0,26.4,0.1,27.1,2.1,31.4
		c1.2,2.5,3.5,5.4,5.1,6.5c5.9,4.2,8.6,4.4,57,4.2C382.4,287,382.4,287,386.5,284.8z"/>
	<path class="st1" d="M325.3,444.8c-10-3.4-16.1-12-16.8-23.4c-0.4-6.6-0.2-7.4,3.5-15.8c4.6-10.3,5.6-13.1,6.1-18.1
		c2.1-17.8,4.9-23.3,13-25.5c6-1.7,13.4,2,15.8,7.8c0.7,1.6,2,7.9,3.1,14.1c1.8,10.3,2.9,14.1,7.8,24.6c2.6,5.8,3.1,13.4,1.1,20.1
		c-1.2,4.4-2.5,6.4-6.4,10.1C344.8,446.2,335.4,448.2,325.3,444.8z"/>
</g>
<g id="kp2r-network">
	<path id="k_1_" class="st2" d="M767.7,525V138.3h70.5V525H767.7z M994.4,138.3l-79.7,192.4L993.8,525h-76l-76.6-194.3l77.2-192.4
		H994.4z"/>
	<path id="p" class="st2" d="M1059.4,138.3h142.2c44.5,0,66.8,20.2,66.8,60.7v123.2c0,40.4-22.3,60.7-66.8,60.7h-71.7V525h-70.5
		V138.3z M1197.9,312.3V208.8c0-6.5-1.2-10.9-3.7-13.2c-2.5-2.2-7-3.4-13.5-3.4h-50.9v136.7h50.9c6.5,0,11-1.1,13.5-3.4
		C1196.7,323.3,1197.9,318.9,1197.9,312.3z"/>
	<path id="_x32_" class="st2" d="M1400.1,208.8v57.6h-70.5V199c0-40.4,22.3-60.7,66.8-60.7h58.8c44.9,0,67.4,20.2,67.4,60.7v43.5
		c0,30.2-9.2,59.7-27.6,88.3l-80.3,140.3h109.7V525h-193v-50.9l99.9-161.8c14.3-21.7,21.4-45.4,21.4-71.1v-32.5
		c0-6.5-1.2-10.9-3.7-13.2c-2.5-2.2-7-3.4-13.5-3.4h-17.8c-7,0-11.6,1.1-14.1,3.4C1401.4,197.8,1400.1,202.2,1400.1,208.8z"/>
	<path id="r_1_" class="st2" d="M1671.6,374.2V525h-70.5V138.3h142.2c44.5,0,66.8,20.2,66.8,60.7v114.6c0,33.5-14.9,53.1-44.7,58.8
		l64.3,152.6h-76l-58.8-150.8H1671.6z M1671.6,192.2v129.9h50.9c6.5,0,11-1.1,13.5-3.4c2.5-2.2,3.7-6.6,3.7-13.2v-96.8
		c0-6.5-1.2-10.9-3.7-13.2c-2.5-2.2-7-3.4-13.5-3.4H1671.6z"/>
	<path id="dot" class="st2" d="M1886.7,525v-82.7h74.8V525H1886.7z"/>
	<path id="n" class="st2" d="M2191.9,138.3h64.3V525h-66.2l-82.7-256.2V525h-65V138.3h68l81.5,252.5V138.3z"/>
	<path id="e" class="st2" d="M2407,224.1h65c44.1,0,66.2,20.2,66.2,60.7v109.7h-130.5v61.9c0,6.5,1.1,10.9,3.4,13.2
		c2.2,2.3,6.8,3.4,13.8,3.4h28.2c6.5,0,11-1.1,13.5-3.4c2.5-2.2,3.7-6.6,3.7-13.2v-22.7h67.4v30.6c0,40.4-22.3,60.7-66.8,60.7H2407
		c-44.5,0-66.8-20.2-66.8-60.7V284.8C2340.2,244.3,2362.5,224.1,2407,224.1z M2407.6,349.7h63.7v-57.6c0-6.5-1.2-10.9-3.7-13.2
		c-2.5-2.2-7-3.4-13.5-3.4h-29.4c-6.5,0-11,1.1-13.5,3.4c-2.5,2.3-3.7,6.6-3.7,13.2V349.7z"/>
	<path id="t" class="st2" d="M2731.2,278h-41.1v174.7c0,6.5,1.2,10.9,3.7,13.2c2.5,2.3,7.1,3.4,14.1,3.4h22.7V525h-42.9
		c-44.5,0-66.8-20.2-66.8-60.7V278h-30v-53.9h30v-53.9h69.3v53.9h41.1V278z"/>
	<path id="w" class="st2" d="M3057.3,224.1h65L3063.4,525h-81.5l-36.2-212.7L2909.6,525h-81.5l-57-300.9h65l34.9,234.7l39.2-234.7
		h72.9l36.8,234.1L3057.3,224.1z"/>
	<path id="o" class="st2" d="M3244.8,224.1h69.3c43.3,0,65,20.2,65,60.7v179.6c0,40.4-21.7,60.7-65,60.7h-69.3
		c-43.7,0-65.6-20.2-65.6-60.7V284.8C3179.2,244.3,3201.1,224.1,3244.8,224.1z M3311,456.4V292.7c0-6.5-1.2-10.9-3.7-13.2
		c-2.5-2.2-7.2-3.4-14.1-3.4H3265c-7,0-11.6,1.1-14.1,3.4c-2.5,2.3-3.7,6.6-3.7,13.2v163.6c0,6.5,1.2,10.9,3.7,13.2
		c2.5,2.3,7.1,3.4,14.1,3.4h28.2c6.9,0,11.6-1.1,14.1-3.4C3309.8,467.3,3311,462.9,3311,456.4z"/>
	<path id="r" class="st2" d="M3581.9,222.9h11v60.1h-25.7c-25.7,0-38.6,14.7-38.6,44.1v198h-69.3V224.1h68.6v38.6
		c3.3-11.8,9.6-21.4,19-28.8C3556.3,226.5,3568,222.9,3581.9,222.9z"/>
	<path id="k" class="st2" d="M3652.9,525V115h69.3v410H3652.9z M3865.6,224.1l-67.4,144.6l67.4,156.3h-72.9l-65-156.3l65.6-144.6
		H3865.6z"/>
</g>
</svg>
